<mxfile host="app.diagrams.net" agent="Mozilla/5.0 (Windows NT 10.0; Win64; x64) AppleWebKit/537.36 (KHTML, like Gecko) Chrome/131.0.0.0 Safari/537.36" version="25.0.3">
  <diagram name="Sayfa -1" id="lpaqPt4GCAIE5SKZ4p8X">
    <mxGraphModel dx="323" dy="171" grid="1" gridSize="10" guides="1" tooltips="1" connect="1" arrows="1" fold="1" page="1" pageScale="1" pageWidth="827" pageHeight="1169" math="0" shadow="0">
      <root>
        <mxCell id="0" />
        <mxCell id="1" parent="0" />
        <mxCell id="ZIyLOdGgL62Nhkdruaqg-5" value="" style="rounded=0;whiteSpace=wrap;html=1;fillColor=#f8cecc;strokeColor=#b85450;" vertex="1" parent="1">
          <mxGeometry x="40" y="30" width="230" height="180" as="geometry" />
        </mxCell>
        <mxCell id="ZIyLOdGgL62Nhkdruaqg-19" style="edgeStyle=orthogonalEdgeStyle;rounded=0;orthogonalLoop=1;jettySize=auto;html=1;exitX=0.5;exitY=1;exitDx=0;exitDy=0;entryX=0.5;entryY=0;entryDx=0;entryDy=0;" edge="1" parent="1" source="ZIyLOdGgL62Nhkdruaqg-6" target="ZIyLOdGgL62Nhkdruaqg-18">
          <mxGeometry relative="1" as="geometry" />
        </mxCell>
        <mxCell id="ZIyLOdGgL62Nhkdruaqg-6" value="" style="rounded=0;whiteSpace=wrap;html=1;" vertex="1" parent="1">
          <mxGeometry x="130" y="90" width="120" height="70" as="geometry" />
        </mxCell>
        <mxCell id="ZIyLOdGgL62Nhkdruaqg-7" value="Login Service" style="text;html=1;align=center;verticalAlign=middle;whiteSpace=wrap;rounded=0;" vertex="1" parent="1">
          <mxGeometry x="140" y="100" width="60" height="30" as="geometry" />
        </mxCell>
        <mxCell id="ZIyLOdGgL62Nhkdruaqg-9" value="&lt;font style=&quot;font-size: 4px;&quot;&gt;Home&lt;/font&gt;" style="text;html=1;align=center;verticalAlign=middle;whiteSpace=wrap;rounded=0;" vertex="1" parent="1">
          <mxGeometry x="40" y="30" width="30" height="10" as="geometry" />
        </mxCell>
        <mxCell id="ZIyLOdGgL62Nhkdruaqg-11" value="&lt;font style=&quot;font-size: 5px;&quot;&gt;About&lt;/font&gt;" style="text;html=1;align=center;verticalAlign=middle;whiteSpace=wrap;rounded=0;" vertex="1" parent="1">
          <mxGeometry x="80" y="30" width="30" height="10" as="geometry" />
        </mxCell>
        <mxCell id="ZIyLOdGgL62Nhkdruaqg-12" value="&lt;font style=&quot;font-size: 4px;&quot;&gt;Contact&lt;/font&gt;" style="text;html=1;align=center;verticalAlign=middle;whiteSpace=wrap;rounded=0;" vertex="1" parent="1">
          <mxGeometry x="130" y="30" width="30" height="10" as="geometry" />
        </mxCell>
        <mxCell id="ZIyLOdGgL62Nhkdruaqg-13" value="&lt;font style=&quot;font-size: 4px;&quot;&gt;Home&lt;/font&gt;" style="text;html=1;align=center;verticalAlign=middle;whiteSpace=wrap;rounded=0;" vertex="1" parent="1">
          <mxGeometry x="160" y="30" width="30" height="10" as="geometry" />
        </mxCell>
        <mxCell id="ZIyLOdGgL62Nhkdruaqg-14" value="&lt;font style=&quot;font-size: 4px;&quot;&gt;Home&lt;/font&gt;" style="text;html=1;align=center;verticalAlign=middle;whiteSpace=wrap;rounded=0;" vertex="1" parent="1">
          <mxGeometry x="190" y="30" width="30" height="10" as="geometry" />
        </mxCell>
        <mxCell id="ZIyLOdGgL62Nhkdruaqg-17" value="&lt;h1 style=&quot;margin-top: 0px;&quot;&gt;&lt;font style=&quot;font-size: 8px;&quot;&gt;Heading&lt;/font&gt;&lt;/h1&gt;&lt;p&gt;&lt;font style=&quot;font-size: 3px;&quot;&gt;Lorem ipsum dolor sit amet, consectetur adipis&lt;/font&gt;&lt;/p&gt;&lt;p&gt;&lt;font style=&quot;font-size: 3px;&quot;&gt;icing elit, se&lt;/font&gt;&lt;/p&gt;&lt;p&gt;&lt;font style=&quot;font-size: 3px;&quot;&gt;d do eiusmod tempor incididunt ut labore et dolore magna aliqua.&lt;/font&gt;&lt;/p&gt;" style="text;html=1;whiteSpace=wrap;overflow=hidden;rounded=0;" vertex="1" parent="1">
          <mxGeometry x="50" y="80" width="110" height="60" as="geometry" />
        </mxCell>
        <mxCell id="ZIyLOdGgL62Nhkdruaqg-18" value="" style="rounded=0;whiteSpace=wrap;html=1;fillColor=#f8cecc;strokeColor=#b85450;" vertex="1" parent="1">
          <mxGeometry x="40" y="240" width="230" height="180" as="geometry" />
        </mxCell>
        <mxCell id="ZIyLOdGgL62Nhkdruaqg-20" value="&lt;font style=&quot;font-size: 5px;&quot;&gt;App Main Page&lt;/font&gt;" style="text;html=1;align=center;verticalAlign=middle;whiteSpace=wrap;rounded=0;" vertex="1" parent="1">
          <mxGeometry x="25" y="230" width="75" height="30" as="geometry" />
        </mxCell>
      </root>
    </mxGraphModel>
  </diagram>
</mxfile>
